<?xml version="1.0" encoding="UTF-8" standalone="no"?>
<!-- Generator: Adobe Illustrator 18.0.0, SVG Export Plug-In . SVG Version: 6.00 Build 0)  -->

<svg
   xmlns:dc="http://purl.org/dc/elements/1.1/"
   xmlns:cc="http://creativecommons.org/ns#"
   xmlns:rdf="http://www.w3.org/1999/02/22-rdf-syntax-ns#"
   xmlns:svg="http://www.w3.org/2000/svg"
   xmlns="http://www.w3.org/2000/svg"
   xmlns:sodipodi="http://sodipodi.sourceforge.net/DTD/sodipodi-0.dtd"
   xmlns:inkscape="http://www.inkscape.org/namespaces/inkscape"
   version="1.1"
   x="0px"
   y="0px"
   viewBox="0 0 14 14"
   enable-background="new 0 0 16 16"
   xml:space="preserve"
   id="svg2"
   inkscape:version="0.91 r13725"
   sodipodi:docname="chev-right-white.svg"
   width="14"
   height="14"><metadata
     id="metadata110"><rdf:RDF><cc:Work
         rdf:about=""><dc:format>image/svg+xml</dc:format><dc:type
           rdf:resource="http://purl.org/dc/dcmitype/StillImage" /><dc:title></dc:title></cc:Work></rdf:RDF></metadata><defs
     id="defs108" /><sodipodi:namedview
     pagecolor="#ffffff"
     bordercolor="#666666"
     borderopacity="1"
     objecttolerance="10"
     gridtolerance="10"
     guidetolerance="10"
     inkscape:pageopacity="0"
     inkscape:pageshadow="2"
     inkscape:window-width="1858"
     inkscape:window-height="1057"
     id="namedview106"
     showgrid="false"
     inkscape:zoom="14.75"
     inkscape:cx="-0.44067797"
     inkscape:cy="8"
     inkscape:window-x="54"
     inkscape:window-y="-8"
     inkscape:window-maximized="1"
     inkscape:current-layer="svg2" /><g
     id="Layer_1"
     transform="translate(0,-2)" /><g
     id="Layer_101"
     transform="translate(-4.9,-1)"
     style="fill:#ffffff"><polygon
       id="XMLID_179_"
       points="10.2,1 16,8 10.2,15 7.8,13 12,8 7.8,3 "
       style="fill:#ffffff" /></g><g
     id="Layer_100"
     transform="translate(0,-2)" /><g
     id="Layer_99"
     transform="translate(0,-2)" /><g
     id="Layer_98"
     transform="translate(0,-2)" /><g
     id="Layer_97"
     transform="translate(0,-2)" /><g
     id="Layer_96"
     transform="translate(0,-2)" /><g
     id="Layer_95"
     transform="translate(0,-2)" /><g
     id="Layer_94"
     transform="translate(0,-2)" /><g
     id="Layer_93"
     transform="translate(0,-2)" /><g
     id="Layer_92"
     transform="translate(0,-2)" /><g
     id="Layer_91"
     transform="translate(0,-2)" /><g
     id="Layer_90"
     transform="translate(0,-2)" /><g
     id="Layer_89"
     transform="translate(0,-2)" /><g
     id="Layer_88"
     transform="translate(0,-2)" /><g
     id="Layer_87"
     transform="translate(0,-2)" /><g
     id="Layer_86"
     transform="translate(0,-2)" /><g
     id="Layer_85"
     transform="translate(0,-2)" /><g
     id="Layer_84"
     transform="translate(0,-2)" /><g
     id="Layer_83"
     transform="translate(0,-2)" /><g
     id="Layer_82"
     transform="translate(0,-2)" /><g
     id="Layer_81"
     transform="translate(0,-2)" /><g
     id="Layer_80"
     transform="translate(0,-2)" /><g
     id="Layer_79"
     transform="translate(0,-2)" /><g
     id="Layer_78"
     transform="translate(0,-2)" /><g
     id="Layer_77"
     transform="translate(0,-2)" /><g
     id="Layer_76"
     transform="translate(0,-2)" /><g
     id="Layer_75"
     transform="translate(0,-2)" /><g
     id="Layer_74"
     transform="translate(0,-2)" /><g
     id="Layer_73"
     transform="translate(0,-2)" /><g
     id="Layer_72"
     transform="translate(0,-2)" /><g
     id="Layer_71"
     transform="translate(0,-2)" /><g
     id="Layer_70"
     transform="translate(0,-2)" /><g
     id="Layer_69"
     transform="translate(0,-2)" /><g
     id="Layer_68"
     transform="translate(0,-2)" /><g
     id="Layer_67"
     transform="translate(0,-2)" /><g
     id="Layer_66"
     transform="translate(0,-2)" /><g
     id="Layer_65"
     transform="translate(0,-2)" /><g
     id="Layer_64"
     transform="translate(0,-2)" /><g
     id="Layer_63"
     transform="translate(0,-2)" /><g
     id="Layer_62"
     transform="translate(0,-2)" /><g
     id="Layer_61"
     transform="translate(0,-2)" /><g
     id="Layer_60"
     transform="translate(0,-2)" /><g
     id="Layer_59"
     transform="translate(0,-2)" /><g
     id="Layer_58"
     transform="translate(0,-2)" /><g
     id="Layer_57"
     transform="translate(0,-2)" /><g
     id="Layer_56"
     transform="translate(0,-2)" /><g
     id="Layer_55"
     transform="translate(0,-2)" /><g
     id="Layer_54"
     transform="translate(0,-2)" /><g
     id="Layer_53"
     transform="translate(0,-2)" /><g
     id="Layer_52"
     transform="translate(0,-2)" /><g
     id="Layer_51"
     transform="translate(0,-2)" /><g
     id="Layer_50"
     transform="translate(0,-2)" /><g
     id="Layer_49"
     transform="translate(0,-2)" /><g
     id="Layer_48"
     transform="translate(0,-2)" /><g
     id="Layer_47"
     transform="translate(0,-2)" /><g
     id="Layer_46"
     transform="translate(0,-2)" /><g
     id="Layer_45"
     transform="translate(0,-2)" /><g
     id="Layer_44"
     transform="translate(0,-2)" /><g
     id="Layer_43"
     transform="translate(0,-2)" /><g
     id="Layer_42"
     transform="translate(0,-2)" /><g
     id="Layer_41"
     transform="translate(0,-2)" /><g
     id="Layer_40"
     transform="translate(0,-2)" /><g
     id="Layer_39"
     transform="translate(0,-2)" /><g
     id="Layer_38"
     transform="translate(0,-2)" /><g
     id="Layer_37"
     transform="translate(0,-2)" /><g
     id="Layer_36"
     transform="translate(0,-2)" /><g
     id="Layer_35"
     transform="translate(0,-2)" /><g
     id="Layer_34"
     transform="translate(0,-2)" /><g
     id="Layer_33"
     transform="translate(0,-2)" /><g
     id="Layer_32"
     transform="translate(0,-2)" /><g
     id="Layer_31"
     transform="translate(0,-2)" /><g
     id="Layer_30"
     transform="translate(0,-2)" /><g
     id="Layer_29"
     transform="translate(0,-2)" /><g
     id="Layer_28"
     transform="translate(0,-2)" /><g
     id="Layer_27"
     transform="translate(0,-2)" /><g
     id="Layer_26"
     transform="translate(0,-2)" /><g
     id="Layer_25"
     transform="translate(0,-2)" /><g
     id="Layer_24"
     transform="translate(0,-2)" /><g
     id="Layer_23"
     transform="translate(0,-2)" /><g
     id="Layer_22"
     transform="translate(0,-2)" /><g
     id="Layer_21"
     transform="translate(0,-2)" /><g
     id="Layer_20"
     transform="translate(0,-2)" /><g
     id="Layer_19"
     transform="translate(0,-2)" /><g
     id="Layer_18"
     transform="translate(0,-2)" /><g
     id="Layer_17"
     transform="translate(0,-2)" /><g
     id="Layer_16"
     transform="translate(0,-2)" /><g
     id="Layer_15"
     transform="translate(0,-2)" /><g
     id="Layer_14"
     transform="translate(0,-2)" /><g
     id="Layer_13"
     transform="translate(0,-2)" /><g
     id="Layer_12"
     transform="translate(0,-2)" /><g
     id="Layer_11"
     transform="translate(0,-2)" /><g
     id="Layer_10"
     transform="translate(0,-2)" /><g
     id="Layer_9"
     transform="translate(0,-2)" /><g
     id="Layer_8"
     transform="translate(0,-2)" /><g
     id="Layer_7"
     transform="translate(0,-2)" /><g
     id="Layer_6"
     transform="translate(0,-2)" /><g
     id="Layer_5"
     transform="translate(0,-2)" /><g
     id="Layer_4"
     transform="translate(0,-2)" /><g
     id="Layer_3"
     transform="translate(0,-2)" /><g
     id="Layer_2"
     transform="translate(0,-2)" /></svg>